<?xml version="1.0" encoding="utf-8"?>
<!-- Generator: Adobe Illustrator 19.2.0, SVG Export Plug-In . SVG Version: 6.00 Build 0)  -->
<svg version="1.1" xmlns="http://www.w3.org/2000/svg" xmlns:xlink="http://www.w3.org/1999/xlink" x="0px" y="0px"
     viewBox="0 0 40 40" style="enable-background:new 0 0 40 40;" xml:space="preserve" >
<style type="text/css">
    .st0{fill:#22B473 ;}
    .st1{fill:#FFA600 ;}
    .st2{fill:#547AFF ;}
</style>
<g id="Layer_1">
</g>
<g id="Menu_bar__x2F__footer">
    <g>
        <g>
            <g>
                <g>
                    <path class="st0" d="M20,40L20,40c-1.2,0-2.4-0.1-3.6-0.3l0.3-1.6c1.1,0.2,2.2,0.3,3.3,0.3L20,40z M22.7,39.8l-0.2-1.6
                        c1.1-0.1,2.2-0.4,3.2-0.7l0.5,1.6C25.1,39.4,23.9,39.7,22.7,39.8z M13.8,39c-1.1-0.4-2.2-0.8-3.3-1.4l0.8-1.5c1,0.5,2,1,3,1.3
                        L13.8,39z M28.7,38L28,36.5c1-0.5,1.9-1,2.8-1.7l1,1.3C30.8,36.9,29.8,37.5,28.7,38z M8.3,36.2c-1-0.7-1.9-1.5-2.7-2.4l1.2-1.1
                        c0.8,0.8,1.6,1.5,2.5,2.2L8.3,36.2z M33.8,34.4l-1.1-1.2c0.8-0.8,1.5-1.6,2.2-2.5l1.3,1C35.5,32.7,34.7,33.6,33.8,34.4z
                         M3.8,31.8c-0.7-1-1.3-2-1.8-3.1L3.5,28c0.5,1,1,1.9,1.7,2.8L3.8,31.8z M37.6,29.5l-1.5-0.8c0.5-1,1-2,1.3-3l1.6,0.5
                        C38.7,27.3,38.2,28.4,37.6,29.5z M1,26.2c-0.4-1.1-0.6-2.3-0.8-3.5l1.6-0.2c0.1,1.1,0.4,2.2,0.7,3.2L1,26.2z M39.7,23.6
                        l-1.6-0.3c0.2-1.1,0.3-2.2,0.3-3.3l1.7-0.1V20C40,21.2,39.9,22.4,39.7,23.6z M0,20L0,20c0-1.2,0.1-2.4,0.3-3.6l1.6,0.3
                        c-0.2,1.1-0.3,2.2-0.3,3.2L0,20z M38.2,17.5c-0.1-1.1-0.4-2.2-0.7-3.2l1.6-0.5c0.4,1.1,0.6,2.3,0.8,3.5L38.2,17.5z M2.5,14.4
                        L1,13.9c0.4-1.1,0.8-2.2,1.4-3.3l1.5,0.8C3.3,12.3,2.9,13.3,2.5,14.4z M36.5,12c-0.5-1-1-1.9-1.7-2.8l1.3-1
                        c0.7,1,1.3,2,1.9,3.1L36.5,12z M5.1,9.3l-1.3-1c0.7-1,1.5-1.9,2.4-2.7l1.1,1.2C6.5,7.5,5.8,8.4,5.1,9.3z M33.2,7.3
                        c-0.8-0.8-1.6-1.5-2.5-2.2l1-1.3c1,0.7,1.9,1.5,2.7,2.3L33.2,7.3z M9.2,5.2l-1-1.3c1-0.7,2-1.3,3.1-1.8L12,3.5
                        C11,4,10.1,4.5,9.2,5.2z M28.6,3.8c-1-0.5-2-0.9-3-1.3L26.1,1c1.1,0.4,2.2,0.8,3.3,1.4L28.6,3.8z M14.3,2.6L13.8,1
                        c1.1-0.4,2.3-0.6,3.5-0.8l0.2,1.6C16.4,2,15.3,2.2,14.3,2.6z M23.2,1.9c-1.1-0.2-2.1-0.3-3.2-0.3L19.9,0H20
                        c1.2,0,2.4,0.1,3.5,0.3L23.2,1.9z"/>
                </g>
                <g>
                    <path class="st1" d="M20,35.1c-8.4,0-15.1-6.8-15.1-15.1S11.6,4.9,20,4.9S35.1,11.6,35.1,20S28.4,35.1,20,35.1z M20,6.5
                        C12.6,6.5,6.5,12.6,6.5,20S12.6,33.5,20,33.5c7.4,0,13.5-6.1,13.5-13.5S27.4,6.5,20,6.5z"/>
                </g>
                <g>
                    <path d="M20,30.1c-5.6,0-10.1-4.5-10.1-10.1S14.4,9.9,20,9.9S30.1,14.4,30.1,20S25.6,30.1,20,30.1z M20,11.6
                        c-4.7,0-8.4,3.8-8.4,8.4c0,4.7,3.8,8.4,8.4,8.4c4.7,0,8.4-3.8,8.4-8.4C28.4,15.3,24.7,11.6,20,11.6z"/>
                </g>
                <g>
                    <path class="st2" d="M20,24.8l-0.1,0c-0.6,0-1.3-0.2-2-0.5l0.7-1.5c0.4,0.2,0.9,0.3,1.3,0.3L20,24.8z M21.6,24.5L21,22.9
                        c0.4-0.2,0.8-0.4,1.2-0.7l1.2,1.2C22.9,23.9,22.3,24.3,21.6,24.5z M16.7,23.4c-0.5-0.5-0.9-1.1-1.1-1.8l1.6-0.6
                        c0.2,0.4,0.4,0.8,0.7,1.2L16.7,23.4z M24.3,22.1l-1.5-0.7c0.2-0.4,0.3-0.9,0.3-1.3l1.4,0l0.3,0C24.8,20.7,24.6,21.4,24.3,22.1z
                         M15.2,20L15.2,20c0-0.7,0.2-1.4,0.5-2.1l1.5,0.7c-0.2,0.4-0.3,0.9-0.3,1.3L15.2,20z M22.9,18.9c-0.2-0.4-0.4-0.8-0.7-1.2
                        l1.2-1.2c0.5,0.5,0.9,1.1,1.1,1.8L22.9,18.9z M17.8,17.8l-1.2-1.2c0.5-0.5,1.1-0.9,1.8-1.1l0.6,1.6
                        C18.5,17.2,18.1,17.5,17.8,17.8z M21.3,17.2c-0.4-0.2-0.9-0.3-1.3-0.3l0-1.4l0-0.3c0,0,0,0,0,0c0.7,0,1.4,0.2,2,0.5L21.3,17.2z
                        "/>
                </g>
            </g>
        </g>
    </g>
</g>
</svg>