<?xml version="1.0" encoding="iso-8859-1"?>
<!DOCTYPE svg PUBLIC "-//W3C//DTD SVG 1.1//EN" "http://www.w3.org/Graphics/SVG/1.1/DTD/svg11.dtd">
<svg version="1.1" id="Layer_1" xmlns="http://www.w3.org/2000/svg" xmlns:xlink="http://www.w3.org/1999/xlink" x="0px" y="0px"
	 width="85.227px" height="28.101px" viewBox="0 0 85.227 28.101" style="enable-background:new 0 0 85.227 28.101;"
	 xml:space="preserve">
<g>
	<g>
		<path style="fill:#FFFFFF;" d="M71.269,4.85C68.937,1.888,65.42,0,61.532,0c-7.219,0-13.068,6.22-13.068,14.069
			c0,7.812,5.85,14.032,13.068,14.032c5.146,0,9.701-3.369,11.737-8.182l-4.739-2.666c-1.186,3.073-3.74,5.146-6.998,5.146
			c-4.258,0-7.479-3.629-7.479-8.331c0-4.739,3.221-8.293,7.479-8.293c2.147,0,3.889,0.925,5.295,2.517L71.269,4.85z"/>
		<path style="fill:#FFFFFF;" d="M22.807,4.85C20.474,1.888,16.957,0,13.069,0C5.85,0,0,6.22,0,14.069
			c0,7.812,5.85,14.032,13.069,14.032c5.146,0,9.7-3.369,11.736-8.182l-4.739-2.666c-1.185,3.073-3.739,5.146-6.998,5.146
			c-4.258,0-7.479-3.629-7.479-8.331c0-4.739,3.221-8.293,7.479-8.293c2.147,0,3.888,0.925,5.294,2.517L22.807,4.85z"/>
		<path style="fill:#FFFFFF;" d="M42.465,17.587c-1.037-0.148-1.333-0.482-1.333-1c0-0.482,0.407-0.963,1-0.963
			c0.259,0,1.296-0.074,1.518,1.629l3.48-1.185c-0.63-2.184-2.073-4.036-5.072-4.036c-2.703,0-4.739,2.073-4.739,4.554
			c0,2.332,1.555,4.221,4.517,4.479c1.037,0.11,1.333,0.556,1.333,1.036c0,0.556-0.407,1-1,1c-0.555,0-1.259-0.407-1.407-1.48
			l-3.739,1.295c0.777,2.147,2.666,3.888,5.035,3.888c2.702,0,4.924-1.999,4.924-4.591C46.982,19.808,45.464,17.993,42.465,17.587z"
			/>
		<path style="fill:#FFFFFF;" d="M31.951,1.259l0.184,1.067c-0.804-0.555-1.712-0.882-2.702-0.882c-3.184,0-5.919,3.184-5.919,7.183
			s2.736,7.331,5.919,7.331c0.99,0,1.898-0.327,2.702-0.882l-0.184,1.066h4.035V1.259H31.951z M29.581,11.625
			c-1.147,0-2.184-1.333-2.184-2.999c0-1.518,1.037-2.851,2.184-2.851c1.148,0,2.147,1.333,2.147,2.851
			C31.728,10.292,30.729,11.625,29.581,11.625z"/>
		<path style="fill:#FFFFFF;" d="M78.452,1.148c-3.628,0-6.775,3.48-6.775,7.479c0,4.147,3.147,7.515,6.775,7.515
			c3.74,0,6.775-3.368,6.775-7.515C85.227,4.628,82.192,1.148,78.452,1.148z M78.452,11.785c-1.379,0-2.686-1.415-2.686-3.157
			s1.307-3.012,2.686-3.012c1.414,0,2.612,1.27,2.612,3.012S79.866,11.785,78.452,11.785z"/>
	</g>
</g>
</svg>
