<?xml version="1.0" encoding="iso-8859-1"?>
<!-- Generator: Adobe Illustrator 16.0.0, SVG Export Plug-In . SVG Version: 6.00 Build 0)  -->
<!DOCTYPE svg PUBLIC "-//W3C//DTD SVG 1.1//EN" "http://www.w3.org/Graphics/SVG/1.1/DTD/svg11.dtd">
<svg version="1.1" id="Layer_1" xmlns="http://www.w3.org/2000/svg" xmlns:xlink="http://www.w3.org/1999/xlink" x="0px" y="0px"
	 width="19.142px" height="24.74px" viewBox="0 0 19.142 24.74" style="enable-background:new 0 0 19.142 24.74;"
	 xml:space="preserve">
<g id="pdf">
	<path class="fill-white" d="M14.72,0H0v24.74h19.142V5.371L14.72,0z M14.496,2.361L17.081,5.5h-2.585V2.361z M1.674,23.066
		V1.674h11.148v5.5h4.646v15.893H1.674z"/>
	<path class="fill-white" d="M5.146,11.592H4.108c-0.15,0-0.214,0.072-0.214,0.222v4.229c0,0.15,0.064,0.214,0.214,0.214h0.499
		c0.143,0,0.208-0.063,0.208-0.214v-1.524h0.492c1.025,0,1.745-0.499,1.745-1.473C7.052,12.021,6.41,11.592,5.146,11.592z
		 M5.236,13.772H4.815v-1.434h0.382c0.519,0,0.908,0.175,0.908,0.714C6.105,13.591,5.736,13.772,5.236,13.772z"/>
	<path class="fill-white" d="M9.296,11.592H8.037c-0.129,0-0.194,0.072-0.194,0.215v4.242c0,0.145,0.065,0.208,0.194,0.208H9.29
		c1.629,0,2.544-0.811,2.544-2.36C11.833,12.307,10.801,11.592,9.296,11.592z M9.329,15.504H8.764v-3.146h0.532
		c0.467,0,0.856,0.109,1.142,0.383c0.292,0.285,0.441,0.674,0.441,1.18C10.879,14.979,10.354,15.504,9.329,15.504z"/>
	<path class="fill-white" d="M15.153,11.592h-2.265c-0.148,0-0.213,0.072-0.213,0.222v4.229c0,0.15,0.064,0.214,0.213,0.214h0.5
		c0.143,0,0.207-0.063,0.207-0.214v-1.816h1.415c0.143,0,0.208-0.071,0.208-0.221v-0.324c0-0.156-0.065-0.221-0.208-0.221h-1.415
		v-1.096h1.558c0.144,0,0.208-0.072,0.208-0.221v-0.331C15.361,11.664,15.296,11.592,15.153,11.592z"/>
</g>
</svg>
