<?xml version="1.0" encoding="iso-8859-1"?>
<!DOCTYPE svg PUBLIC "-//W3C//DTD SVG 1.1//EN" "http://www.w3.org/Graphics/SVG/1.1/DTD/svg11.dtd">
<svg version="1.1" id="Layer_1" xmlns="http://www.w3.org/2000/svg" xmlns:xlink="http://www.w3.org/1999/xlink" x="0px" y="0px"
	 width="29.541px" height="29.602px" viewBox="0 0 29.541 29.602" style="enable-background:new 0 0 29.541 29.602;"
	 xml:space="preserve">
<g>
	<circle style="opacity:0.98;fill:#D6DFF2;" cx="14.801" cy="14.801" r="14.801"/>
	<g>
		<path style="fill:#010101;" d="M15.197,17.66c0,0.317-0.127,0.444-0.397,0.444h-0.684c-0.286,0-0.414-0.143-0.414-0.461v-1.336
			c0-0.35,0.127-0.667,0.366-0.89c0.779-0.779,2.083-1.558,2.083-2.782c0-0.938-0.621-1.447-1.686-1.447
			c-1.272,0-1.988,0.509-2.385,0.509c-0.111,0-0.175-0.08-0.191-0.254l-0.048-0.795c-0.016-0.287,0.032-0.382,0.271-0.477
			c0.636-0.27,1.733-0.461,2.608-0.461c1.733,0,3.021,1.002,3.021,2.719c0,1.622-1.033,2.592-2.162,3.529
			c-0.271,0.223-0.382,0.43-0.382,0.717V17.66z M14.434,19.376c0.604,0,1.081,0.479,1.081,1.082c0,0.604-0.477,1.065-1.081,1.065
			s-1.065-0.461-1.065-1.065C13.368,19.854,13.83,19.376,14.434,19.376z"/>
	</g>
</g>
</svg>
