<?xml version="1.0" encoding="iso-8859-1"?>
<!DOCTYPE svg PUBLIC "-//W3C//DTD SVG 1.1//EN" "http://www.w3.org/Graphics/SVG/1.1/DTD/svg11.dtd">
<svg version="1.1" id="Layer_1" xmlns="http://www.w3.org/2000/svg" xmlns:xlink="http://www.w3.org/1999/xlink" x="0px" y="0px"
	 width="192.921px" height="192.921px" viewBox="0 0 192.921 192.921" style="enable-background:new 0 0 192.921 192.921;"
	 xml:space="preserve">
    <g>
        <g>
            <path style="fill:#D6DFF2;" d="M96.46,3c51.534,0,93.461,41.926,93.461,93.46s-41.927,93.461-93.461,93.461S3,147.994,3,96.46
                S44.926,3,96.46,3 M96.46,0C43.187,0,0,43.187,0,96.46c0,53.273,43.187,96.461,96.46,96.461s96.461-43.188,96.461-96.461
                C192.921,43.187,149.733,0,96.46,0L96.46,0z"/>
        </g>
        <g>
            <path style="fill:#D6DFF2;" d="M96.461,27.425c38.066,0,69.035,30.969,69.035,69.035c0,38.066-30.969,69.036-69.035,69.036
                s-69.036-30.97-69.036-69.036C27.425,58.394,58.395,27.425,96.461,27.425 M96.461,24.425
                c-39.784,0-72.036,32.251-72.036,72.035c0,39.784,32.251,72.036,72.036,72.036s72.035-32.252,72.035-72.036
                C168.496,56.676,136.245,24.425,96.461,24.425L96.461,24.425z"/>
        </g>
        <g>
            <path style="fill:#D6DFF2;" d="M96.461,52.824c24.061,0,43.636,19.575,43.636,43.636c0,24.062-19.575,43.637-43.636,43.637
                c-24.062,0-43.637-19.575-43.637-43.637C52.824,72.399,72.399,52.824,96.461,52.824 M96.461,49.824
                c-25.757,0-46.637,20.88-46.637,46.636c0,25.757,20.88,46.637,46.637,46.637c25.756,0,46.636-20.88,46.636-46.637
                C143.097,70.704,122.217,49.824,96.461,49.824L96.461,49.824z"/>
        </g>
        <g>
            <path style="fill:#D6DFF2;" d="M96.46,79.69c9.247,0,16.771,7.523,16.771,16.77c0,9.247-7.523,16.771-16.771,16.771
                s-16.77-7.523-16.77-16.771C79.69,87.213,87.213,79.69,96.46,79.69 M96.46,76.69c-10.918,0-19.77,8.852-19.77,19.77
                c0,10.919,8.852,19.771,19.77,19.771c10.919,0,19.771-8.852,19.771-19.771C116.23,85.542,107.379,76.69,96.46,76.69
                L96.46,76.69z"/>
        </g>
    </g>
</svg>
