<?xml version="1.0" encoding="iso-8859-1"?>
<!DOCTYPE svg PUBLIC "-//W3C//DTD SVG 1.1//EN" "http://www.w3.org/Graphics/SVG/1.1/DTD/svg11.dtd">
<svg version="1.1" id="Layer_1" xmlns="http://www.w3.org/2000/svg" xmlns:xlink="http://www.w3.org/1999/xlink" x="0px" y="0px"
	 width="81.591px" height="45.104px" viewBox="0 0 81.591 45.104" style="enable-background:new 0 0 81.591 45.104;"
	 xml:space="preserve">
<g>
    <path style="fill:#FFFFFF;" d="M9.503,16.225l-2.052-4.937L6.796,12.38l0.252,3.999l-2.901,0.183L3.393,4.546l2.9-0.182
        l0.088,1.407C6.45,6.87,6.497,7.884,6.52,8.795C6.825,7.88,7.43,6.533,7.868,5.575L8.49,4.226l3.245-0.204L9.434,8.543
        l3.279,7.479L9.503,16.225z"/>
    <path style="fill:#FFFFFF;" d="M18.795,15.641l-1.697-4.511l-0.773,0.048l0.29,4.6l-2.816,0.177L13.044,3.94l4.153-0.261
        c2.164-0.136,3.787,0.745,3.955,3.423c0.098,1.562-0.438,2.611-1.381,3.257l2.079,5.091L18.795,15.641z M17.136,5.975
        l-1.133,0.071l0.185,2.935l1.081-0.068c0.823-0.052,1.102-0.552,1.04-1.547C18.245,6.371,17.925,5.925,17.136,5.975z"/>
    <path style="fill:#FFFFFF;" d="M23.314,15.357L22.559,3.342l2.901-0.182l0.755,12.015L23.314,15.357z"/>
    <path style="fill:#FFFFFF;" d="M32.312,5.245l0.598,9.509l-2.866,0.18l-0.598-9.509l-2.438,0.153l-0.157-2.506l7.741-0.486
        l0.157,2.505L32.312,5.245z"/>
    <path style="fill:#FFFFFF;" d="M36.728,14.515L35.973,2.5l2.9-0.182l0.755,12.015L36.728,14.515z"/>
    <path style="fill:#FFFFFF;" d="M45.032,14.183c-1.871,0.117-3.001-0.587-4.08-1.845l1.845-1.892
        c0.867,0.91,1.551,1.367,2.135,1.33c0.602-0.038,1.011-0.374,0.97-1.025c-0.043-0.67-0.258-1.07-1.65-1.585
        c-2.453-0.897-3.385-1.751-3.503-3.639c-0.124-1.957,1.205-3.592,3.505-3.737c1.852-0.116,2.821,0.495,3.895,1.668l-1.878,1.91
        c-0.886-0.926-1.197-1.218-1.952-1.17c-0.55,0.035-0.832,0.466-0.803,0.913c0.039,0.635,0.369,0.976,1.621,1.431
        c2.49,0.912,3.444,1.852,3.57,3.86C48.847,12.65,47.263,14.042,45.032,14.183z"/>
    <path style="fill:#FFFFFF;" d="M54.218,13.605c-2.816,0.177-4.376-1.879-4.628-5.913c-0.263-4.171,1.205-6.313,3.884-6.481
        c2.521-0.159,3.487,1.228,4.098,3.499l-2.736,0.929c-0.29-1.326-0.521-2-1.225-1.956c-0.927,0.058-1.226,1.059-1.055,3.789
        c0.173,2.763,0.596,3.719,1.558,3.658c0.669-0.042,0.86-0.537,1.095-2.034l2.718,0.744C57.53,12.053,56.603,13.456,54.218,13.605z
        "/>
    <path style="fill:#FFFFFF;" d="M64.816,12.75l-0.315-5.029l-2.42,0.151l0.315,5.029l-2.9,0.183L58.741,1.069l2.9-0.182
        l0.281,4.479l2.42-0.151l-0.281-4.48l2.9-0.183l0.756,12.015L64.816,12.75z"/>
    <path style="fill:#FFFFFF;" d="M69.475,12.457L68.72,0.442L75.756,0l0.153,2.455l-4.187,0.263l0.13,2.059l2.729-0.171l0.152,2.438
        l-2.729,0.171l0.165,2.609l4.308-0.27l0.154,2.454L69.475,12.457z"/>
    <path style="fill:#FFFFFF;" d="M4.291,31.252c-1.869,0.117-3-0.587-4.08-1.846l1.847-1.891c0.867,0.91,1.55,1.367,2.133,1.33
        c0.601-0.038,1.012-0.373,0.971-1.025c-0.042-0.67-0.258-1.07-1.65-1.586c-2.452-0.896-3.385-1.751-3.504-3.64
        c-0.122-1.957,1.205-3.591,3.504-3.736c1.854-0.117,2.822,0.495,3.897,1.668l-1.878,1.91c-0.886-0.926-1.199-1.217-1.954-1.169
        c-0.548,0.035-0.831,0.466-0.803,0.912c0.041,0.635,0.373,0.977,1.623,1.432c2.488,0.912,3.442,1.852,3.569,3.859
        C8.108,29.72,6.522,31.112,4.291,31.252z"/>
    <path style="fill:#FFFFFF;" d="M13.624,20.93l0.596,9.509l-2.865,0.181l-0.597-9.51l-2.438,0.153l-0.158-2.505l7.741-0.487
        l0.158,2.506L13.624,20.93z"/>
    <path style="fill:#FFFFFF;" d="M22.03,30.137c-2.489,0.156-4.172-1.115-4.357-4.068l-0.495-7.878l2.9-0.182l0.501,7.965
        c0.073,1.149,0.488,1.727,1.347,1.673c0.841-0.054,1.146-0.675,1.074-1.825l-0.501-7.965l2.902-0.182l0.491,7.81
        C26.083,28.521,24.588,29.977,22.03,30.137z"/>
    <path style="fill:#FFFFFF;" d="M31.102,29.378l-3.227,0.203L27.12,17.565l3.485-0.219c3.107-0.196,4.75,1.529,5.008,5.63
        C35.885,27.303,34.364,29.174,31.102,29.378z M30.653,19.739l-0.515,0.033l0.456,7.26l0.445-0.027
        c1.339-0.084,1.83-0.753,1.64-3.791C32.495,20.278,31.991,19.654,30.653,19.739z"/>
    <path style="fill:#FFFFFF;" d="M37.46,28.979l-0.755-12.016l7.038-0.441l0.154,2.455l-4.188,0.263l0.13,2.06l2.728-0.171
        l0.154,2.437l-2.728,0.172l0.163,2.609l4.307-0.271l0.154,2.455L37.46,28.979z"/>
    <path style="fill:#FFFFFF;" d="M52.02,28.064l-1.985-3.34c-0.752-1.262-1.468-2.527-1.752-3.198
        c0.111,0.682,0.225,2.209,0.296,3.341l0.213,3.399l-2.695,0.169L45.341,16.42l2.507-0.157l1.701,2.65
        c0.763,1.193,1.542,2.626,1.808,3.264c-0.111-0.647-0.249-2.31-0.318-3.409l-0.17-2.695l2.695-0.168l0.756,12.016L52.02,28.064z"
        />
    <path style="fill:#FFFFFF;" d="M60.37,17.992l0.597,9.51l-2.866,0.18l-0.596-9.509l-2.438,0.153l-0.159-2.506l7.741-0.486
        l0.159,2.506L60.37,17.992z"/>
    <path style="fill:#FFFFFF;" d="M64.73,27.266L63.976,15.25l7.037-0.442l0.154,2.455l-4.188,0.264l0.129,2.059l2.73-0.172
        l0.154,2.438l-2.73,0.171l0.163,2.608l4.31-0.27l0.153,2.454L64.73,27.266z"/>
    <path style="fill:#FFFFFF;" d="M79.292,26.351l-1.985-3.339c-0.752-1.263-1.468-2.528-1.752-3.199
        c0.112,0.682,0.226,2.209,0.296,3.341l0.213,3.399l-2.693,0.169l-0.755-12.015l2.507-0.158l1.701,2.65
        c0.763,1.193,1.541,2.625,1.806,3.264c-0.11-0.647-0.247-2.31-0.317-3.409l-0.169-2.695l2.694-0.169l0.754,12.016L79.292,26.351z"
        />
    <path style="fill:#FFFFFF;" d="M14.971,45.092c-2.488,0.155-4.17-1.117-4.356-4.069l-0.494-7.878l2.9-0.184l0.5,7.965
        c0.073,1.15,0.486,1.728,1.345,1.674c0.841-0.054,1.147-0.676,1.075-1.826l-0.5-7.964l2.9-0.183l0.491,7.811
        C19.023,43.476,17.528,44.93,14.971,45.092z"/>
    <path style="fill:#FFFFFF;" d="M25.096,34.719l0.598,9.51l-2.866,0.18l-0.598-9.51l-2.439,0.154l-0.157-2.506l7.741-0.486
        l0.157,2.506L25.096,34.719z"/>
    <path style="fill:#FFFFFF;" d="M34.452,43.678l-1.697-4.512l-0.773,0.049l0.29,4.6l-2.816,0.178l-0.755-12.016l4.153-0.26
        c2.164-0.137,3.785,0.743,3.954,3.422c0.099,1.562-0.438,2.611-1.381,3.257l2.079,5.091L34.452,43.678z M32.793,34.012
        l-1.133,0.07l0.185,2.936l1.081-0.068c0.823-0.051,1.102-0.551,1.039-1.547C33.902,34.406,33.583,33.962,32.793,34.012z"/>
    <path style="fill:#FFFFFF;" d="M38.92,43.396l-0.755-12.014l7.037-0.443l0.154,2.455l-4.188,0.264l0.13,2.059l2.729-0.172
        l0.153,2.438l-2.73,0.171l0.163,2.609l4.31-0.271l0.155,2.454L38.92,43.396z"/>
    <path style="fill:#FFFFFF;" d="M51.066,42.823c-2.814,0.177-4.374-1.88-4.628-5.913c-0.261-4.17,1.208-6.312,3.885-6.481
        c2.523-0.159,3.49,1.229,4.098,3.499l-2.734,0.93c-0.289-1.325-0.521-2-1.226-1.957c-0.927,0.06-1.226,1.061-1.054,3.789
        c0.174,2.764,0.595,3.72,1.557,3.659c0.669-0.042,0.862-0.537,1.095-2.033l2.718,0.742C54.382,41.271,53.452,42.674,51.066,42.823
        z"/>
    <path style="fill:#FFFFFF;" d="M61.669,41.968l-0.317-5.029l-2.42,0.152l0.317,5.029l-2.9,0.183l-0.756-12.016l2.9-0.182
        l0.281,4.479l2.42-0.15l-0.28-4.48l2.9-0.183l0.755,12.016L61.669,41.968z"/>
    <path style="fill:#FFFFFF;" d="M70.603,31.859l0.598,9.51l-2.865,0.18l-0.598-9.51l-2.439,0.154l-0.156-2.506l7.74-0.486
        l0.158,2.506L70.603,31.859z"/>
</g>
</svg>
