<?xml version="1.0" encoding="iso-8859-1"?>
<!DOCTYPE svg PUBLIC "-//W3C//DTD SVG 1.1//EN" "http://www.w3.org/Graphics/SVG/1.1/DTD/svg11.dtd">
<svg version="1.1" id="Layer_1" xmlns="http://www.w3.org/2000/svg" xmlns:xlink="http://www.w3.org/1999/xlink" x="0px" y="0px"
	 width="23.334px" height="23.334px" viewBox="0 0 23.334 23.334" style="enable-background:new 0 0 23.334 23.334;"
	 xml:space="preserve">
<g>
    <path style="fill:#010101;" d="M2.726,2.726c-3.634,3.634-3.634,9.525,0,13.159c3.634,3.634,9.525,3.635,13.159,0
        c3.634-3.634,3.634-9.525,0-13.159S6.36-0.908,2.726,2.726z M14.643,14.644c-2.948,2.948-7.728,2.948-10.676,0
        s-2.948-7.728,0-10.677c2.948-2.948,7.729-2.948,10.676,0C17.592,6.916,17.592,11.695,14.643,14.644z"/>
        <rect x="16.871" y="14.326" transform="matrix(0.7072 -0.707 0.707 0.7072 -7.7879 18.7982)" style="fill:#010101;" width="3.864" height="8.953"/>
</g>
</svg>
