<?xml version="1.0" encoding="iso-8859-1"?>
<!DOCTYPE svg PUBLIC "-//W3C//DTD SVG 1.1//EN" "http://www.w3.org/Graphics/SVG/1.1/DTD/svg11.dtd">
<svg version="1.1" id="Layer_1" xmlns="http://www.w3.org/2000/svg" xmlns:xlink="http://www.w3.org/1999/xlink" x="0px" y="0px"
	 width="34.198px" height="28.543px" viewBox="0 0 34.198 28.543" style="enable-background:new 0 0 34.198 28.543;"
	 xml:space="preserve">
<g>
    <path d="M34.198,3.384c-0.23,0.486-0.654,1.09-1.277,1.832s-1.389,1.383-2.305,1.944c0.024,0.205,0.043,0.392,0.056,0.572
			C30.685,7.913,30.69,8.1,30.69,8.305c0,1.065-0.118,2.236-0.361,3.507c-0.242,1.271-0.616,2.561-1.127,3.868
			c-0.511,1.309-1.152,2.604-1.925,3.887s-1.694,2.474-2.766,3.563c-1.065,1.091-2.28,2.062-3.638,2.896
			c-1.358,0.841-2.878,1.464-4.554,1.868c-1.956,0.431-3.912,0.648-5.868,0.648c-0.841,0-1.706-0.043-2.609-0.131
			c-0.903-0.087-1.807-0.255-2.71-0.498s-1.794-0.567-2.666-0.972C1.582,26.538,0.76,26.014,0,25.379
			c1.981,0.28,3.856,0.118,5.625-0.474c1.769-0.592,3.376-1.445,4.821-2.535c-0.33,0-0.766-0.031-1.314-0.094
			c-0.548-0.062-1.134-0.255-1.756-0.573c-0.623-0.316-1.252-0.81-1.888-1.47s-1.196-1.588-1.675-2.784
			c0.149,0.05,0.361,0.081,0.629,0.094c0.268,0.012,0.555,0.006,0.859-0.02c0.306-0.024,0.604-0.056,0.897-0.093
			c0.292-0.038,0.554-0.081,0.778-0.131c-1.32-0.405-2.354-0.946-3.108-1.62c-0.747-0.672-1.302-1.364-1.657-2.08
			c-0.355-0.71-0.579-1.383-0.667-2.019c-0.087-0.635-0.131-1.133-0.131-1.488c0.33,0.205,0.816,0.417,1.451,0.647
			c0.636,0.23,1.208,0.33,1.713,0.306c-1.041-0.866-1.8-1.72-2.268-2.573C1.844,7.62,1.563,6.798,1.47,5.994
			C1.383,5.19,1.427,4.412,1.601,3.652c0.175-0.76,0.418-1.501,0.723-2.211c1.396,1.576,2.791,2.853,4.174,3.831
			s2.71,1.732,3.962,2.268s2.436,0.891,3.525,1.065c1.09,0.175,2.043,0.269,2.859,0.269c-0.149-1.016-0.162-1.981-0.019-2.897
			c0.137-0.915,0.43-1.756,0.878-2.516c0.442-0.759,1.034-1.414,1.775-1.962c0.735-0.548,1.613-0.959,2.629-1.24
			c1.245-0.355,2.441-0.343,3.581,0.037c1.146,0.38,2.125,1.041,2.935,1.981c0.354-0.025,0.915-0.137,1.675-0.342
			c0.761-0.206,1.713-0.648,2.859-1.333c-0.074,0.255-0.199,0.566-0.361,0.934c-0.168,0.368-0.373,0.741-0.629,1.127
			c-0.256,0.38-0.561,0.748-0.916,1.103c-0.354,0.355-0.76,0.648-1.221,0.878c0.38-0.075,0.804-0.168,1.259-0.268
			c0.38-0.1,0.828-0.236,1.333-0.398C33.126,3.814,33.662,3.615,34.198,3.384z"/>
</g>
</svg>
