<?xml version="1.0" encoding="iso-8859-1"?>
<!DOCTYPE svg PUBLIC "-//W3C//DTD SVG 1.1//EN" "http://www.w3.org/Graphics/SVG/1.1/DTD/svg11.dtd">
<svg version="1.1" id="Layer_1" xmlns="http://www.w3.org/2000/svg" xmlns:xlink="http://www.w3.org/1999/xlink" x="0px" y="0px"
	 width="41.401px" height="33.63px" viewBox="0 0 41.401 33.63" style="enable-background:new 0 0 41.401 33.63;"
	 xml:space="preserve">
<g>
	<path style="fill:#010101;" d="M10.143,32.445c0.13,0.069,0.225,0.158,0.283,0.266c0.087,0.161,0.075,0.354-0.123,0.461
		l-0.557,0.301c-0.27,0.145-0.559,0.256-1.078,0.025c-2.14-0.956-5.053-2.91-6.936-6.395c-1.883-3.486-1.921-6.992-1.546-9.306
		c0.091-0.561,0.342-0.742,0.611-0.887l0.557-0.301c0.198-0.107,0.365-0.012,0.453,0.15c0.058,0.107,0.08,0.234,0.067,0.382
		c-0.296,2.759,0.162,6.271,1.637,9.001C4.987,28.873,7.673,31.181,10.143,32.445z"/>
	<path style="fill:#010101;" d="M10.545,18.53c0,1.797,0.511,3.226,2.348,3.226c2.165,0,3.227-1.939,3.227-4.206v-4.247
		c0-0.408,0.163-0.592,0.53-0.592h0.878c0.327,0,0.49,0.184,0.49,0.592v9.229c0,0.409-0.163,0.592-0.49,0.592h-0.796
		c-0.368,0-0.531-0.183-0.531-0.592V21.47h-0.143c-0.837,1.367-2.001,1.898-3.532,1.898c-3.247,0-3.879-2.389-3.879-4.43v-5.636
		c0-0.408,0.163-0.592,0.49-0.592h0.878c0.368,0,0.53,0.184,0.53,0.592V18.53z"/>
	<path style="fill:#010101;" d="M23.873,23.124c-0.328,0-0.49-0.183-0.49-0.592v-9.229c0-0.408,0.162-0.592,0.49-0.592h0.795
		c0.368,0,0.531,0.184,0.531,0.592v0.878h0.143c0.797-1.143,1.98-1.715,3.533-1.715c3.246,0,3.879,2.389,3.879,4.431v5.635
		c0,0.409-0.163,0.592-0.49,0.592h-0.878c-0.368,0-0.53-0.183-0.53-0.592v-5.471c0-1.736-0.613-2.981-2.349-2.981
		c-2.123,0-3.226,1.837-3.226,4.042v4.41c0,0.409-0.163,0.592-0.531,0.592H23.873z"/>
	<path style="fill:#010101;" d="M31.257,1.185c-0.131-0.069-0.225-0.158-0.282-0.265c-0.088-0.162-0.075-0.354,0.122-0.461
		l0.557-0.301c0.271-0.145,0.559-0.255,1.078-0.025c2.141,0.955,5.053,2.909,6.936,6.395c1.883,3.484,1.921,6.991,1.547,9.306
		c-0.093,0.56-0.342,0.741-0.611,0.887l-0.557,0.3c-0.198,0.107-0.365,0.012-0.453-0.149c-0.059-0.108-0.081-0.235-0.067-0.382
		c0.297-2.759-0.162-6.271-1.638-9.001C36.414,4.758,33.728,2.449,31.257,1.185z"/>
</g>
</svg>
