<?xml version="1.0" encoding="iso-8859-1"?>
<!DOCTYPE svg PUBLIC "-//W3C//DTD SVG 1.1//EN" "http://www.w3.org/Graphics/SVG/1.1/DTD/svg11.dtd">
<svg version="1.1" id="Layer_1" xmlns="http://www.w3.org/2000/svg" xmlns:xlink="http://www.w3.org/1999/xlink" x="0px" y="0px"
	 viewBox="0 0 65 65" style="enable-background:new 0 0 65 65;" xml:space="preserve">
    <g id="haakjes">
        <path id="haakjeonder" d="M20.3,49c0.1,0.1,0.2,0.2,0.3,0.3c0.1,0.2,0.1,0.4-0.1,0.5l-0.6,0.3c-0.3,0.2-0.6,0.3-1.1,0
        c-2.3-1-5.3-3.1-7.3-6.8s-2-7.4-1.6-9.8c0.1-0.6,0.4-0.8,0.6-0.9l0.6-0.3c0.2-0.1,0.4,0,0.5,0.2c0.1,0.1,0.1,0.2,0.1,0.4
        c-0.3,2.9,0.2,6.6,1.7,9.5C14.9,45.2,17.7,47.7,20.3,49"/>
        <path id="haakjeboven" d="M42.6,16c-0.1-0.1-0.2-0.2-0.3-0.3c-0.1-0.2-0.1-0.4,0.1-0.5l0.6-0.3c0.3-0.2,0.6-0.3,1.1,0
        c2.3,1,5.3,3.1,7.3,6.8c2,3.7,2,7.4,1.6,9.8c-0.1,0.6-0.4,0.8-0.6,0.9l-0.6,0.3c-0.2,0.1-0.4,0-0.5-0.2c-0.1-0.1-0.1-0.2-0.1-0.4
        c0.3-2.9-0.2-6.6-1.7-9.5C48.1,19.8,45.2,17.3,42.6,16"/>
    </g>
    <path id="letteru" d="M20.7,34.3c0,1.9,0.5,3.4,2.5,3.4c2.3,0,3.4-2,3.4-4.4v-4.5c0-0.4,0.2-0.6,0.6-0.6h0.9c0.3,0,0.5,0.2,0.5,0.6
        v9.8c0,0.4-0.2,0.6-0.5,0.6h-0.8c-0.4,0-0.6-0.2-0.6-0.6v-1.1h-0.2c-0.9,1.4-2.1,2-3.7,2c-3.4,0-4.1-2.5-4.1-4.7v-6
        c0-0.4,0.2-0.6,0.5-0.6h0.9c0.4,0,0.6,0.2,0.6,0.6V34.3z"/>
    <path id="lettern" d="M34.8,39.2c-0.3,0-0.5-0.2-0.5-0.6v-9.8c0-0.4,0.2-0.6,0.5-0.6h0.8c0.4,0,0.6,0.2,0.6,0.6v0.9h0.2
        c0.8-1.2,2.1-1.8,3.7-1.8c3.4,0,4.1,2.5,4.1,4.7v6c0,0.4-0.2,0.6-0.5,0.6h-0.9c-0.4,0-0.6-0.2-0.6-0.6v-5.8c0-1.8-0.6-3.2-2.5-3.2
        c-2.2,0-3.4,1.9-3.4,4.3v4.7c0,0.4-0.2,0.6-0.6,0.6H34.8z"/>
</svg>
