<?xml version="1.0" encoding="iso-8859-1"?>
<!DOCTYPE svg PUBLIC "-//W3C//DTD SVG 1.1//EN" "http://www.w3.org/Graphics/SVG/1.1/DTD/svg11.dtd">
<svg version="1.1" id="Layer_1" xmlns="http://www.w3.org/2000/svg" xmlns:xlink="http://www.w3.org/1999/xlink" x="0px" y="0px"
	 width="172.645px" height="96.919px" viewBox="0 0 172.645 96.919" style="enable-background:new 0 0 172.645 96.919;"
	 xml:space="preserve">
<g>
    <path style="fill:#FFFFFF;stroke:#FFFFFF;stroke-width:0.75;stroke-miterlimit:10;" d="M57.121,50.597
        c0.211,0.104,0.366,0.241,0.463,0.41c0.146,0.256,0.135,0.562-0.177,0.741l-0.876,0.504c-0.424,0.243-0.881,0.432-1.719,0.085
        c-3.458-1.436-8.192-4.435-11.345-9.922c-3.153-5.488-3.36-11.087-2.859-14.798c0.123-0.898,0.515-1.199,0.939-1.442l0.876-0.503
        c0.311-0.179,0.583-0.035,0.729,0.22c0.098,0.169,0.138,0.372,0.123,0.607c-0.358,4.418,0.521,10.009,2.992,14.308
        C48.736,45.105,53.124,48.68,57.121,50.597z"/>
    <path style="fill:#FFFFFF;stroke:#FFFFFF;stroke-width:0.75;stroke-miterlimit:10;" d="M57.138,27.917
        c0,2.872,0.815,5.155,3.751,5.155c3.458,0,5.155-3.099,5.155-6.72v-6.786c0-0.652,0.26-0.946,0.847-0.946h1.403
        c0.522,0,0.782,0.294,0.782,0.946v14.745c0,0.653-0.26,0.946-0.782,0.946h-1.272c-0.587,0-0.849-0.293-0.849-0.946v-1.696h-0.228
        c-1.337,2.185-3.197,3.034-5.643,3.034c-5.187,0-6.198-3.816-6.198-7.079v-9.004c0-0.652,0.26-0.946,0.783-0.946h1.403
        c0.587,0,0.848,0.294,0.848,0.946V27.917z"/>
    <path style="fill:#FFFFFF;stroke:#FFFFFF;stroke-width:0.75;stroke-miterlimit:10;" d="M78.247,35.257
        c-0.522,0-0.783-0.293-0.783-0.946V19.566c0-0.652,0.26-0.946,0.783-0.946h1.272c0.587,0,0.847,0.294,0.847,0.946v1.402h0.228
        c1.273-1.826,3.165-2.74,5.645-2.74c5.187,0,6.197,3.817,6.197,7.079v9.003c0,0.653-0.261,0.946-0.782,0.946h-1.403
        c-0.587,0-0.847-0.293-0.847-0.946v-8.742c0-2.774-0.979-4.763-3.752-4.763c-3.393,0-5.155,2.935-5.155,6.458v7.046
        c0,0.653-0.26,0.946-0.847,0.946H78.247z"/>
    <path style="fill:#FFFFFF;stroke:#FFFFFF;stroke-width:0.75;stroke-miterlimit:10;" d="M80.385,57.992
        c0,2.872,0.815,5.155,3.752,5.155c3.457,0,5.154-3.1,5.154-6.721v-6.785c0-0.652,0.26-0.946,0.848-0.946h1.402
        c0.523,0,0.783,0.294,0.783,0.946v14.744c0,0.653-0.26,0.947-0.783,0.947H90.27c-0.588,0-0.849-0.294-0.849-0.947V62.69h-0.229
        c-1.337,2.186-3.196,3.033-5.643,3.033c-5.187,0-6.197-3.816-6.197-7.078v-9.004c0-0.652,0.26-0.946,0.783-0.946h1.403
        c0.587,0,0.847,0.294,0.847,0.946V57.992z"/>
    <path style="fill:#FFFFFF;stroke:#FFFFFF;stroke-width:0.75;stroke-miterlimit:10;" d="M110.038,50.033l-0.261,1.108
        c-0.098,0.359-0.229,0.522-0.588,0.522c-0.652,0-1.402-0.718-3.295-0.718c-1.565,0-2.545,0.686-2.545,1.762
        c0,1.305,1.11,1.924,3.621,3.099c2.709,1.272,3.947,2.479,3.947,4.991c0,3.588-3.326,4.926-6.067,4.926
        c-1.337,0-2.772-0.293-3.816-0.783c-0.555-0.26-0.685-0.521-0.619-0.979l0.13-1.109c0.065-0.521,0.261-0.75,0.686-0.75
        c0.555,0,1.5,0.979,3.62,0.979c1.371,0,2.97-0.488,2.97-2.119c0-1.371-0.979-1.957-3.491-3.066
        c-2.446-1.078-4.045-2.447-4.045-4.959c0-3.132,2.512-4.632,5.676-4.632c1.044,0,2.382,0.261,3.491,0.718
        C110.07,49.282,110.169,49.446,110.038,50.033z"/>
    <path style="fill:#FFFFFF;stroke:#FFFFFF;stroke-width:0.75;stroke-miterlimit:10;" d="M121.673,57.992
        c0,2.872,0.815,5.155,3.751,5.155c3.458,0,5.155-3.1,5.155-6.721v-6.785c0-0.652,0.261-0.946,0.847-0.946h1.403
        c0.522,0,0.782,0.294,0.782,0.946v14.744c0,0.653-0.26,0.947-0.782,0.947h-1.272c-0.587,0-0.848-0.294-0.848-0.947V62.69h-0.229
        c-1.337,2.186-3.197,3.033-5.643,3.033c-5.188,0-6.199-3.816-6.199-7.078v-9.004c0-0.652,0.262-0.946,0.783-0.946h1.403
        c0.587,0,0.848,0.294,0.848,0.946V57.992z"/>
    <path style="fill:#FFFFFF;stroke:#FFFFFF;stroke-width:0.75;stroke-miterlimit:10;" d="M154.121,50.392h0.129v-0.75
        c0-0.652,0.262-0.946,0.85-0.946h1.402c0.522,0,0.782,0.294,0.782,0.946v14.744c0,0.653-0.26,0.947-0.782,0.947h-1.272
        c-0.587,0-0.849-0.294-0.849-0.947v-1.467h-0.098c-1.435,2.021-3.294,2.805-5.709,2.805c-4.893,0-7.437-4.273-7.437-8.906
        c0-4.24,2.479-8.513,7.567-8.513C151.087,48.304,152.783,49.054,154.121,50.392z M154.25,57.046c0-3.816-2.152-6.197-5.088-6.197
        c-3.229,0-4.795,3.132-4.795,6.1c0,2.74,1.37,6.199,4.763,6.199C152.229,63.147,154.25,60.603,154.25,57.046z"/>
    <path style="fill:#FFFFFF;stroke:#FFFFFF;stroke-width:0.75;stroke-miterlimit:10;" d="M165.615,41.03
        c0-0.653,0.26-0.946,0.783-0.946h1.402c0.588,0,0.848,0.293,0.848,0.946v18.496c0,1.892,0.522,3.262,2.186,3.262
        c0.457,0,0.652-0.066,0.881-0.066c0.359,0,0.555,0.131,0.555,0.621v1.338c0,0.424-0.131,0.587-0.457,0.685
        c-0.424,0.13-1.043,0.195-1.467,0.195c-4.014,0-4.73-2.772-4.73-6.394V41.03z"/>
    <path style="fill:#FFFFFF;stroke:#FFFFFF;stroke-width:0.75;stroke-miterlimit:10;" d="M1.159,96.152
        c-0.522,0-0.784-0.293-0.784-0.946V71.851c0-0.653,0.262-0.947,0.784-0.947h1.402c0.587,0,0.848,0.294,0.848,0.947v10.08h0.099
        c1.468-2.023,3.294-2.807,5.643-2.807c4.894,0,7.372,4.045,7.372,8.841c0,4.338-2.414,8.579-7.372,8.579
        c-2.479,0-4.47-0.914-5.742-2.707H3.278v1.369c0,0.653-0.26,0.946-0.847,0.946H1.159z M3.409,87.671
        C3.409,91.781,5.53,94,8.531,94c3.229,0,4.763-2.839,4.763-6.101c0-2.838-1.272-6.197-4.73-6.197
        C5.432,81.702,3.409,84.311,3.409,87.671z"/>
    <path style="fill:#FFFFFF;stroke:#FFFFFF;stroke-width:0.75;stroke-miterlimit:10;" d="M26.843,88.812
        c0,2.871,0.815,5.154,3.752,5.154c3.458,0,5.154-3.099,5.154-6.72v-6.785c0-0.652,0.26-0.947,0.848-0.947H38
        c0.522,0,0.783,0.295,0.783,0.947v14.744c0,0.653-0.26,0.946-0.783,0.946h-1.272c-0.587,0-0.849-0.293-0.849-0.946v-1.695H35.65
        c-1.337,2.186-3.196,3.033-5.643,3.033c-5.187,0-6.197-3.816-6.197-7.078v-9.004c0-0.652,0.26-0.947,0.783-0.947h1.403
        c0.587,0,0.847,0.295,0.847,0.947V88.812z"/>
    <path style="fill:#FFFFFF;stroke:#FFFFFF;stroke-width:0.75;stroke-miterlimit:10;" d="M56.736,80.853l-0.262,1.109
        c-0.098,0.359-0.228,0.522-0.587,0.522c-0.652,0-1.403-0.718-3.295-0.718c-1.565,0-2.544,0.685-2.544,1.762
        c0,1.305,1.11,1.924,3.621,3.099c2.708,1.272,3.947,2.479,3.947,4.991c0,3.588-3.327,4.926-6.068,4.926
        c-1.337,0-2.772-0.294-3.816-0.783c-0.554-0.26-0.685-0.521-0.619-0.979l0.13-1.109c0.065-0.521,0.261-0.75,0.686-0.75
        c0.554,0,1.5,0.979,3.62,0.979c1.371,0,2.969-0.488,2.969-2.12c0-1.37-0.979-1.957-3.49-3.066
        c-2.447-1.077-4.045-2.446-4.045-4.958c0-3.132,2.511-4.633,5.676-4.633c1.044,0,2.381,0.262,3.491,0.719
        C56.768,80.103,56.867,80.267,56.736,80.853z"/>
    <path style="fill:#FFFFFF;stroke:#FFFFFF;stroke-width:0.75;stroke-miterlimit:10;" d="M67.077,71.393
        c1.076,0,1.957,0.882,1.957,1.958s-0.881,1.924-1.957,1.924c-1.077,0-1.925-0.848-1.925-1.924S66,71.393,67.077,71.393z
         M65.576,80.462c0-0.652,0.261-0.947,0.848-0.947h1.403c0.522,0,0.783,0.295,0.783,0.947v14.744c0,0.653-0.26,0.946-0.783,0.946
        h-1.403c-0.587,0-0.848-0.293-0.848-0.946V80.462z"/>
    <path style="fill:#FFFFFF;stroke:#FFFFFF;stroke-width:0.75;stroke-miterlimit:10;" d="M78.201,96.152
        c-0.522,0-0.784-0.293-0.784-0.946V80.462c0-0.652,0.261-0.947,0.784-0.947h1.272c0.587,0,0.848,0.295,0.848,0.947v1.402h0.229
        c1.272-1.826,3.164-2.74,5.643-2.74c5.186,0,6.198,3.816,6.198,7.079v9.003c0,0.653-0.261,0.946-0.783,0.946h-1.402
        c-0.588,0-0.848-0.293-0.848-0.946v-8.742c0-2.773-0.979-4.762-3.752-4.762c-3.393,0-5.154,2.935-5.154,6.458v7.046
        c0,0.653-0.26,0.946-0.848,0.946H78.201z"/>
    <path style="fill:#FFFFFF;stroke:#FFFFFF;stroke-width:0.75;stroke-miterlimit:10;" d="M114.074,88.552h-10.928
        c0.064,3.197,2.512,5.448,5.676,5.448c2.904,0,4.143-1.208,4.795-1.208c0.229,0,0.392,0.098,0.425,0.49l0.098,1.402
        c0.033,0.555-0.294,0.717-0.751,0.914c-1.435,0.619-3.065,0.945-4.697,0.945c-5.578,0-8.775-3.426-8.775-8.938
        c0-4.861,3.197-8.482,7.961-8.482c4.599,0,7.438,3.002,7.438,8.285C115.314,88.193,114.955,88.552,114.074,88.552z
         M112.183,86.203c-0.065-2.577-1.664-4.437-4.372-4.437c-2.674,0-4.371,2.023-4.632,4.437H112.183z"/>
    <path style="fill:#FFFFFF;stroke:#FFFFFF;stroke-width:0.75;stroke-miterlimit:10;" d="M132.125,80.853l-0.262,1.109
        c-0.098,0.359-0.229,0.522-0.588,0.522c-0.651,0-1.402-0.718-3.295-0.718c-1.564,0-2.544,0.685-2.544,1.762
        c0,1.305,1.109,1.924,3.621,3.099c2.708,1.272,3.947,2.479,3.947,4.991c0,3.588-3.327,4.926-6.067,4.926
        c-1.338,0-2.773-0.294-3.817-0.783c-0.554-0.26-0.685-0.521-0.619-0.979l0.131-1.109c0.065-0.521,0.261-0.75,0.685-0.75
        c0.555,0,1.501,0.979,3.621,0.979c1.37,0,2.969-0.488,2.969-2.12c0-1.37-0.979-1.957-3.49-3.066
        c-2.447-1.077-4.045-2.446-4.045-4.958c0-3.132,2.511-4.633,5.676-4.633c1.043,0,2.381,0.262,3.49,0.719
        C132.156,80.103,132.255,80.267,132.125,80.853z"/>
    <path style="fill:#FFFFFF;stroke:#FFFFFF;stroke-width:0.75;stroke-miterlimit:10;" d="M150.11,80.853l-0.262,1.109
        c-0.098,0.359-0.228,0.522-0.587,0.522c-0.652,0-1.402-0.718-3.295-0.718c-1.565,0-2.545,0.685-2.545,1.762
        c0,1.305,1.109,1.924,3.621,3.099c2.708,1.272,3.947,2.479,3.947,4.991c0,3.588-3.326,4.926-6.067,4.926
        c-1.337,0-2.772-0.294-3.817-0.783c-0.554-0.26-0.685-0.521-0.619-0.979l0.131-1.109c0.065-0.521,0.261-0.75,0.686-0.75
        c0.555,0,1.5,0.979,3.62,0.979c1.37,0,2.969-0.488,2.969-2.12c0-1.37-0.979-1.957-3.49-3.066
        c-2.446-1.077-4.045-2.446-4.045-4.958c0-3.132,2.511-4.633,5.676-4.633c1.044,0,2.381,0.262,3.491,0.719
        C150.143,80.103,150.24,80.267,150.11,80.853z"/>
    <path style="fill:#FFFFFF;stroke:#FFFFFF;stroke-width:0.75;stroke-miterlimit:10;" d="M90.396,2.306
        c-0.21-0.104-0.365-0.242-0.463-0.412c-0.146-0.255-0.134-0.562,0.177-0.741l0.877-0.504c0.424-0.244,0.881-0.432,1.719-0.085
        c3.459,1.436,8.193,4.436,11.346,9.922c3.152,5.488,3.359,11.087,2.859,14.798c-0.123,0.898-0.516,1.199-0.939,1.442
        l-0.877,0.504c-0.312,0.179-0.583,0.035-0.729-0.221c-0.097-0.169-0.138-0.372-0.122-0.607
        c0.357-4.418-0.521-10.009-2.992-14.308C98.78,7.797,94.393,4.222,90.396,2.306z"/>
</g>
</svg>
