<?xml version="1.0" encoding="utf-8"?>
<!-- Generator: Adobe Illustrator 19.2.0, SVG Export Plug-In . SVG Version: 6.00 Build 0)  -->
<svg version="1.1" xmlns="http://www.w3.org/2000/svg" xmlns:xlink="http://www.w3.org/1999/xlink" x="0px" y="0px"
     viewBox="0 0 70 57.6" style="enable-background:new 0 0 70 57.6;" xml:space="preserve">
<style type="text/css">
    .st0{fill:#010101 ;}
</style>
<g id="Layer_1">
</g>
<g id="Menu_bar__x2F__footer">
    <g>
        <path class="st0" d="M17.1,55.2c0.2,0.1,0.4,0.3,0.5,0.4c0.1,0.3,0.1,0.6-0.2,0.8L16.5,57c-0.5,0.2-0.9,0.4-1.8,0
            C11,55.4,6.1,52.1,2.9,46.2c-3.2-5.9-3.2-11.8-2.6-15.7c0.2-0.9,0.6-1.3,1-1.5l0.9-0.5c0.3-0.2,0.6,0,0.8,0.3
            c0.1,0.2,0.1,0.4,0.1,0.6C2.7,34,3.4,40,5.9,44.6S13,53.1,17.1,55.2z"/>
        <path class="st0" d="M17.8,31.7c0,3,0.9,5.5,4,5.5c3.7,0,5.5-3.3,5.5-7.1v-7.2c0-0.7,0.3-1,0.9-1h1.5c0.6,0,0.8,0.3,0.8,1v15.6
            c0,0.7-0.3,1-0.8,1h-1.3c-0.6,0-0.9-0.3-0.9-1v-1.8h-0.2c-1.4,2.3-3.4,3.2-6,3.2c-5.5,0-6.6-4-6.6-7.5v-9.5c0-0.7,0.3-1,0.8-1h1.5
            c0.6,0,0.9,0.3,0.9,1V31.7z"/>
        <path class="st0" d="M40.4,39.5c-0.6,0-0.8-0.3-0.8-1V22.9c0-0.7,0.3-1,0.8-1h1.3c0.6,0,0.9,0.3,0.9,1v1.5h0.2
            c1.3-1.9,3.3-2.9,6-2.9c5.5,0,6.6,4,6.6,7.5v9.5c0,0.7-0.3,1-0.8,1h-1.5c-0.6,0-0.9-0.3-0.9-1v-9.3c0-2.9-1-5-4-5
            c-3.6,0-5.5,3.1-5.5,6.8v7.5c0,0.7-0.3,1-0.9,1H40.4z"/>
        <path class="st0" d="M52.8,2.4c-0.2-0.1-0.4-0.3-0.5-0.4c-0.1-0.3-0.1-0.6,0.2-0.8l0.9-0.5c0.5-0.2,0.9-0.4,1.8,0
            c3.6,1.6,8.5,4.9,11.7,10.8c3.2,5.9,3.2,11.8,2.6,15.7c-0.2,0.9-0.6,1.3-1,1.5l-0.9,0.5c-0.3,0.2-0.6,0-0.8-0.3
            c-0.1-0.2-0.1-0.4-0.1-0.6c0.5-4.7-0.3-10.6-2.8-15.2C61.6,8.4,57,4.5,52.8,2.4z"/>
    </g>
</g>
</svg>